<svg width="69" height="104" viewBox="0 0 69 104" fill="none" xmlns="http://www.w3.org/2000/svg">
<path d="M17.1268 103.238C21.6493 103.238 25.9866 101.443 29.1845 98.2469C32.3824 95.0513 34.179 90.7172 34.179 86.1979V69.158H17.1268C12.6043 69.158 8.26707 70.9533 5.06918 74.1489C1.87129 77.3445 0.0747299 81.6787 0.0747299 86.1979C0.0747299 90.7172 1.87129 95.0513 5.06918 98.2469C8.26707 101.443 12.6043 103.238 17.1268 103.238Z" fill="#0ACF83"/>
<path d="M0.0747299 52.1181C0.0747299 47.5988 1.87129 43.2646 5.06918 40.069C8.26707 36.8734 12.6043 35.0782 17.1268 35.0782H34.179V69.158H17.1268C12.6043 69.158 8.26707 67.3627 5.06918 64.1671C1.87129 60.9715 0.0747299 56.6373 0.0747299 52.1181Z" fill="#A259FF"/>
<path d="M0.074707 18.0383C0.0747057 13.5214 1.86943 9.18923 5.06445 5.99401C8.25946 2.79879 12.5933 1.00196 17.1135 0.998435H34.1656V35.0782L17.1268 35.0782C12.6043 35.0782 8.26705 33.283 5.06916 30.0874C1.87126 26.8918 0.074707 22.5576 0.074707 18.0383Z" fill="#F24E1E"/>
<path d="M34.1792 0.998413H51.2313C55.7538 0.998413 60.0911 2.79368 63.289 5.98928C66.4869 9.18488 68.2835 13.519 68.2835 18.0383C68.2835 22.5576 66.4869 26.8917 63.289 30.0873C60.0911 33.2829 55.7538 35.0782 51.2313 35.0782L34.179 35.0782L34.1792 0.998413Z" fill="#FF7262"/>
<path d="M68.2835 52.1181C68.2835 56.6373 66.4869 60.9715 63.289 64.1671C60.0911 67.3627 55.7538 69.158 51.2313 69.158C46.7088 69.158 42.3716 67.3627 39.1737 64.1671C35.9758 60.9715 34.1792 56.6373 34.1792 52.1181C34.1792 47.5988 35.9758 43.2646 39.1737 40.069C42.3716 36.8734 46.7088 35.0782 51.2313 35.0782C55.7538 35.0782 60.0911 36.8734 63.289 40.069C66.4869 43.2646 68.2835 47.5988 68.2835 52.1181Z" fill="#1ABCFE"/>
</svg>
