<svg width="121" height="108" viewBox="0 0 121 108" fill="none" xmlns="http://www.w3.org/2000/svg">
<path d="M60.2524 64.7966C66.2102 64.7966 71.0399 59.9703 71.0399 54.0168C71.0399 48.0633 66.2102 43.2371 60.2524 43.2371C54.2947 43.2371 49.465 48.0633 49.465 54.0168C49.465 59.9703 54.2947 64.7966 60.2524 64.7966Z" fill="#00D8FF"/>
<path d="M60.2524 64.7966C66.2102 64.7966 71.0399 59.9703 71.0399 54.0168C71.0399 48.0633 66.2102 43.2371 60.2524 43.2371C54.2947 43.2371 49.465 48.0633 49.465 54.0168C49.465 59.9703 54.2947 64.7966 60.2524 64.7966Z" stroke="#00D8FF" stroke-width="4.3708"/>
<path fill-rule="evenodd" clip-rule="evenodd" d="M60.2529 32.0993C74.7366 32.0993 88.1915 34.1761 98.3365 37.6661C110.56 41.8713 118.075 48.2452 118.075 54.0168C118.075 60.0312 110.11 66.8026 96.9842 71.1485C87.0605 74.434 74.0016 76.1492 60.2529 76.1492C46.1567 76.1492 32.8084 74.5393 22.7729 71.1124C10.0761 66.7758 2.42871 59.9167 2.42871 54.0168C2.42871 48.292 9.60432 41.9673 21.6558 37.7686C31.8386 34.221 45.6258 32.0993 60.2509 32.0993H60.2529Z" stroke="#00D8FF" stroke-width="4.3708"/>
<path fill-rule="evenodd" clip-rule="evenodd" d="M41.1596 43.1212C48.3954 30.5835 56.9171 19.9737 65.0109 12.9352C74.7626 4.45484 84.0427 1.13369 89.0458 4.0167C94.2599 7.02133 96.1509 17.2991 93.3609 30.8326C91.2536 41.0646 86.2145 53.2254 79.346 65.127C72.3037 77.3295 64.24 88.0803 56.2565 95.0535C46.1543 103.878 36.3876 107.072 31.2731 104.124C26.3101 101.266 24.4123 91.8932 26.7931 79.3631C28.8047 68.7761 33.853 55.7814 41.1572 43.121L41.1596 43.1212Z" stroke="#00D8FF" stroke-width="4.3708"/>
<path fill-rule="evenodd" clip-rule="evenodd" d="M41.1779 65.1591C33.9216 52.6356 28.9813 39.9568 26.9191 29.4347C24.4368 16.7569 26.1919 7.06376 31.1905 4.17236C36.3994 1.15892 46.2546 4.65455 56.5944 13.829C64.412 20.7652 72.4396 31.199 79.3281 43.0895C86.3906 55.2801 91.6839 67.6306 93.743 78.0247C96.3486 91.178 94.2397 101.228 89.1299 104.184C84.172 107.052 75.0991 104.015 65.4248 95.6962C57.2508 88.6676 48.5057 77.8072 41.1779 65.1591Z" stroke="#00D8FF" stroke-width="4.3708"/>
</svg>
